<svg xmlns="http://www.w3.org/2000/svg" width="183.148" height="205.39" viewBox="0 0 183.148 205.39">
  <path id="icons8-css3" d="M185.285,5.855A8.578,8.578,0,0,0,178.9,3H12.889a8.574,8.574,0,0,0-8.521,9.515L23.244,182.442a8.561,8.561,0,0,0,6.163,7.295l64.12,18.319a8.478,8.478,0,0,0,4.715,0l64.12-18.319a8.573,8.573,0,0,0,6.163-7.295L187.411,12.515A8.54,8.54,0,0,0,185.285,5.855Zm-42.107,83.5-3.823,62.449L96.168,165.924,52.982,151.805,51.344,121.94H73.2l.549,13.578,22.416,7.6,22.416-7.6,1.637-24.431H72.115L71.026,89.365h50.293l1.637-21.722H47.512L45.875,45.913H145.913Z" transform="translate(-4.317 -3)" opacity="0.144"/>
</svg>
