<svg xmlns="http://www.w3.org/2000/svg" width="308.139" height="410.897" viewBox="0 0 308.139 410.897">
  <g id="Group_25" data-name="Group 25" transform="translate(-1135.327 -276.372)">
    <path id="Path_296" data-name="Path 296" d="M989.24,564.7H920.6c0,1.973-70.74,3.574-70.74,3.574a18.392,18.392,0,0,0-3.016,2.859,17.741,17.741,0,0,0-4.147,11.437v2.859A17.877,17.877,0,0,0,860.571,603.3H989.24a17.887,17.887,0,0,0,17.871-17.871v-2.859A17.9,17.9,0,0,0,989.24,564.7Z" transform="translate(384.583 -35.913)" fill="#3f3d56"/>
    <rect id="Rectangle_137" data-name="Rectangle 137" width="18.586" height="120.091" transform="translate(1300.904 566.68)" fill="#3f3d56"/>
    <path id="Path_297" data-name="Path 297" d="M982.005,680.138c0,2.008-28.163.777-62.9.777s-62.9,1.231-62.9-.777,28.164-17.933,62.9-17.933S982.005,678.13,982.005,680.138Z" transform="translate(390.381 5.98)" fill="#3f3d56"/>
    <path id="Path_298" data-name="Path 298" d="M636.874,460.575H619.346l-8.339-67.606h25.87Z" transform="translate(579.667 209.749)" fill="#ffb8b8"/>
    <path id="Path_299" data-name="Path 299" d="M614.479,436.753h33.8v21.283H593.2A21.283,21.283,0,0,1,614.479,436.753Z" transform="translate(572.014 228.561)" fill="#2f2e41"/>
    <path id="Path_300" data-name="Path 300" d="M614.988,455.127l-16.723-5.248,12.284-67,24.682,7.746Z" transform="translate(574.193 205.414)" fill="#ffb8b8"/>
    <path id="Path_301" data-name="Path 301" d="M21.283,0h33.8V21.283H0A21.283,21.283,0,0,1,21.283,0Z" transform="translate(1141.7 640.394) rotate(17.423)" fill="#2f2e41"/>
    <path id="Path_302" data-name="Path 302" d="M957.842,563.973a54.139,54.139,0,0,0-2.173-10.036l-3.274-4.117-8.521-10.694-.371.014c-.63.029-3.246.172-7.291.486h-.043c-2.5.2-5.562.457-9.035.786-.915.1-1.873.186-2.859.286v14.926h17.871a3.58,3.58,0,0,1,3.545,3.117c.014.157.029.3.029.457a3.576,3.576,0,0,1-3.574,3.574H838.352a40.6,40.6,0,0,0-3.8,2.859,21.277,21.277,0,0,0-7.506,11.237c-6.061,26.649-17.113,76.344-20.373,90.94a6.489,6.489,0,0,0,1.93,6.119,6.342,6.342,0,0,0,2.1,1.3l12.9,4.832a6.856,6.856,0,0,0,1.644.386c.071,0,.129.014.2.014a3.771,3.771,0,0,0,.4.015,6.479,6.479,0,0,0,6.019-4.146l10.179-26.706,15.684-41.174,6.2-16.284c7.191,1.687,67.523,15.04,87.724-6.476a22.972,22.972,0,0,0,4.632-7.306,29.739,29.739,0,0,0,1.558-14.411Z" transform="translate(369.04 -46.902)" fill="#2f2e41"/>
    <path id="Path_303" data-name="Path 303" d="M969.754,564.854c-.314-1.272-.671-2.588-1.086-3.917l-11.795-14.811-.371.014c-.744.043-4.275.229-9.694.672-6.147.515-14.74,1.344-24.39,2.645-.286.029-.586.071-.872.114-.944.129-1.9.257-2.859.4v2.645h17.871a3.58,3.58,0,0,1,3.546,3.117c.014.157.029.3.029.457a3.576,3.576,0,0,1-3.574,3.574H873.4c-2.759.9-5.418,1.844-7.963,2.859-13.353,5.29-23.346,12.224-25.391,21.245-.686,3.031-1.444,6.362-2.244,9.907-2.974,13.182-6.591,29.322-9.865,43.991v.014c-.672,3.031-1.344,5.976-1.987,8.835-2.731,12.3-5.046,22.717-6.276,28.193-.029.157-.056.3-.086.457v.029a6.676,6.676,0,0,0,.4,3.274l.014.014v.014a6.334,6.334,0,0,0,1.859,2.559,6.57,6.57,0,0,0,1.844,1.072l12.9,4.832a6.543,6.543,0,0,0,2.244.415,6.339,6.339,0,0,0,3.074-.786,6.434,6.434,0,0,0,2.945-3.359l27.764-72.855,4.3-11.308c7.191,1.687,67.523,15.026,87.724-6.476a24.149,24.149,0,0,0,6.4-15.826,42.443,42.443,0,0,0-1.3-12.009Z" transform="translate(374.627 -43.895)" fill="#2f2e41"/>
    <path id="Path_304" data-name="Path 304" d="M944.975,474.514c-.228-.272-.472-.543-.729-.8a34.987,34.987,0,0,0-29.98-10.565,113.437,113.437,0,0,0-14.168,2.788,35.713,35.713,0,0,0-15.983,8.964,34.905,34.905,0,0,0-10.594,26.02c.057,1.959.071,3.96.043,5.99,0,.944-.015,1.9-.029,2.859h14.1a7.6,7.6,0,0,1,1.816.214,7.879,7.879,0,0,1,6.048,7.649V584.14c.958.272,1.915.543,2.859.829.3.1.586.186.872.272.329.1.658.2.972.3q4.353,1.351,8.506,2.859h4.661a3.58,3.58,0,0,1,3.546,3.117c.972.386,1.916.772,2.845,1.158,3.3,1.373,6.433,2.745,9.307,4.075,3.875,1.773,7.32,3.46,10.208,4.932a6.559,6.559,0,0,0,2.931.715,6.3,6.3,0,0,0,3.717-1.23,7.875,7.875,0,0,0,.643-.529,6.44,6.44,0,0,0,1.959-5.69,183.127,183.127,0,0,1-1.286-33.883c.4-9.507,1.258-19.258,2.373-28.679.6-5.1,1.272-10.108,1.973-14.925.672-4.6,1.387-9.021,2.087-13.2A35.179,35.179,0,0,0,944.975,474.514Z" transform="translate(397.82 -79.679)" fill="#f9a826"/>
    <path id="Path_305" data-name="Path 305" d="M892.325,472.232a16.943,16.943,0,0,0-2.259-.786,16.439,16.439,0,0,0-19.357,9.336l-9.822,22.674-1.229,2.859h33.926a7.6,7.6,0,0,1,1.816.214l1.143-2.645,4.346-10.036a16.457,16.457,0,0,0-8.563-21.616Z" transform="translate(391.868 -76.225)" fill="#f9a826"/>
    <circle id="Ellipse_100" data-name="Ellipse 100" cx="35.114" cy="35.114" r="35.114" transform="translate(1279.582 302.078)" fill="#ffb8b8"/>
    <path id="Path_306" data-name="Path 306" d="M944.972,501.105l-20.044.543-1.458,14.082-.329,3.26-31.4,14.1-2.859,1.287v25.062l2.859-.815,9.035-2.573h.043l39.8-11.337.457-.129a15.554,15.554,0,0,0,11.238-14.8l.1-16.627.086-12.252Z" transform="translate(404.427 -63.324)" fill="#ffb8b8"/>
    <path id="Path_307" data-name="Path 307" d="M942.551,486.2a16.443,16.443,0,1,0-32.825,2.016l2.187,35.684a6.413,6.413,0,0,0,2.616,4.775,6.342,6.342,0,0,0,4.2,1.244l15.326-.944,4.646-.286a6.269,6.269,0,0,0,4.432-2.159,4.5,4.5,0,0,0,.343-.429,6.39,6.39,0,0,0,1.258-4.232Z" transform="translate(413.368 -76.272)" fill="#f9a826"/>
    <path id="Path_308" data-name="Path 308" d="M937.415,572.3h-1.844v-.186c-.944.129-1.9.257-2.859.4v2.645h13.21Q941.761,573.655,937.415,572.3Zm0,0h-1.844v-.186c-.944.129-1.9.257-2.859.4v2.645h13.21Q941.761,573.655,937.415,572.3Zm13.167,0H935.571V504.388a10.738,10.738,0,0,0-7.763-10.293,10.079,10.079,0,0,0-2.959-.429H797.609a10.735,10.735,0,0,0-10.722,10.722v70.053a10.726,10.726,0,0,0,10.722,10.722H950.582a6.44,6.44,0,0,0,6.39-5.733,5.533,5.533,0,0,0,.043-.7,6.443,6.443,0,0,0-6.434-6.433Zm3.574,6.434a3.576,3.576,0,0,1-3.574,3.574H797.609a7.868,7.868,0,0,1-7.863-7.863V504.388a7.868,7.868,0,0,1,7.863-7.863H924.849a7.6,7.6,0,0,1,1.816.214,7.879,7.879,0,0,1,6.047,7.649v70.768h17.871a3.58,3.58,0,0,1,3.546,3.117c.014.157.028.3.028.458ZM937.415,572.3h-1.844v-.186c-.944.129-1.9.257-2.859.4v2.645h13.21Q941.761,573.655,937.415,572.3Z" transform="translate(360.603 -66.434)" fill="#3f3d56"/>
    <circle id="Ellipse_101" data-name="Ellipse 101" cx="8.578" cy="8.578" r="8.578" transform="translate(1213.249 464.404)" fill="#f9a826"/>
    <path id="Path_309" data-name="Path 309" d="M909.845,435.035c-8.156,7.286-19.091,15.106-29.078,9.768-6.558-3.505-9.477-11.191-7.946-18.468,2.754-13.085,14.066-20.154,25.018-25.869,14.238-7.43,29.95-13.909,45.892-11.977s31.52,15.105,30.767,31.147c-.605,12.9-11.14,24.936-7.805,37.412,3.356,12.557,18.6,17.419,31.58,18.058s27.273-.468,37.571,7.462c13.137,10.116,12.927,31.27,3.575,44.961s-25.146,21.4-40.658,27.253c-20.553,7.76-43.143,13.366-64.358,7.661s-39.788-26.059-36.676-47.806c1.314-9.186,6.147-17.432,10.811-25.455s9.355-16.388,10.334-25.615c.816-7.69-1.627-16.178-7.3-21.132a6.344,6.344,0,0,1-1.8-7.244Z" transform="translate(397.353 -111.772)" fill="#2f2e41"/>
  </g>
</svg>
