<svg xmlns="http://www.w3.org/2000/svg" width="265.307" height="411.391" viewBox="0 0 265.307 411.391">
  <g id="Group_24" data-name="Group 24" transform="translate(32.157 -291.046)">
    <path id="Path_311" data-name="Path 311" d="M246.516,583.137v2.949a18.45,18.45,0,0,0,18.434,18.434H397.676a18.441,18.441,0,0,0,18.434-18.434v-2.95a18.3,18.3,0,0,0-4.277-11.8,18.967,18.967,0,0,0-3.111-2.949s-72.97-1.652-72.97-3.687h-70.8a18.46,18.46,0,0,0-18.434,18.434Z" transform="translate(-278.673 -26.176)" fill="#3f3d56"/>
    <rect id="Rectangle_138" data-name="Rectangle 138" width="19.172" height="123.878" transform="translate(61.495 701.489) rotate(180)" fill="#3f3d56"/>
    <path id="Path_312" data-name="Path 312" d="M260.021,680.7c0,2.071,29.051.8,64.888.8s64.888,1.27,64.888-.8-29.051-18.5-64.888-18.5S260.021,678.632,260.021,680.7Z" transform="translate(-272.262 20.112)" fill="#3f3d56"/>
    <path id="Path_313" data-name="Path 313" d="M163.531,463.467h18.08l8.6-69.737H163.528Z" transform="translate(-14.149 222.178)" fill="#a0616a"/>
    <path id="Path_314" data-name="Path 314" d="M0,0H56.822V21.954H21.954A21.954,21.954,0,0,1,0,0H0Z" transform="translate(202.327 702.434) rotate(179.997)" fill="#2f2e41"/>
    <path id="Path_315" data-name="Path 315" d="M189.39,458.167l17.25-5.414L193.969,383.64l-25.46,7.99Z" transform="translate(-11.784 217.388)" fill="#a0616a"/>
    <path id="Path_316" data-name="Path 316" d="M0,0H56.823V21.954H21.954A21.954,21.954,0,0,1,0,0H0Z" transform="translate(233.15 675.723) rotate(162.577)" fill="#2f2e41"/>
    <path id="Path_317" data-name="Path 317" d="M422.468,681.416,389.393,594.6c-7.42,1.743-69.647,15.512-90.488-6.678-7.143-7.605-8.535-18.624-4.14-32.751l12.163-15.285.378.02c4.6.242,112.722,6.3,120.133,38.916,6.249,27.5,17.662,78.759,21.011,93.816a6.659,6.659,0,0,1-4.15,7.644L431,685.267a6.582,6.582,0,0,1-2.318.422,6.655,6.655,0,0,1-6.213-4.272Z" transform="translate(-256.958 -37.959)" fill="#2f2e41"/>
    <path id="Path_318" data-name="Path 318" d="M409.468,688.416,376.393,601.6c-7.42,1.743-69.647,15.511-90.488-6.678-7.143-7.605-8.536-18.624-4.14-32.751l12.163-15.284.378.02c4.6.242,112.722,6.3,120.134,38.916,6.249,27.5,17.662,78.759,21.011,93.816a6.659,6.659,0,0,1-4.15,7.644L418,692.267a6.581,6.581,0,0,1-2.318.422,6.655,6.655,0,0,1-6.213-4.272Z" transform="translate(-263.129 -34.636)" fill="#2f2e41"/>
    <path id="Path_319" data-name="Path 319" d="M358.586,543.62a28.309,28.309,0,0,1-24.31-13.821l-10.5-17.794,24.966-13.646,10.6,14.535,71.928-7.578a15.573,15.573,0,0,1,1.179-1.82h0a16.245,16.245,0,0,1,11.611-6.362,16.064,16.064,0,0,1,12.524,4.442,16.224,16.224,0,0,1-21.02,24.649,15.331,15.331,0,0,1-1.214-1.032l-68.892,17.565A27.772,27.772,0,0,1,358.586,543.62Z" transform="translate(-241.998 -58.281)" fill="#a0616a"/>
    <path id="Path_320" data-name="Path 320" d="M283.378,606.281a6.646,6.646,0,0,1-2.682-6.413c4.1-27.051-.618-65.8-5.3-93.546a36.567,36.567,0,0,1,40.643-42.416,117.772,117.772,0,0,1,14.619,2.882h0a36.273,36.273,0,0,1,27.4,36.083c-.7,26.773,4.736,60.177,7.106,73.3a6.664,6.664,0,0,1-1.23,5.177,6.478,6.478,0,0,1-4.565,2.581c-26.262,2.68-54.583,15.488-69.127,22.883a6.636,6.636,0,0,1-3.023.739,6.531,6.531,0,0,1-3.843-1.266Z" transform="translate(-265.21 -74.165)" fill="#ccc"/>
    <path id="Path_321" data-name="Path 321" d="M335.052,532.7a6.593,6.593,0,0,1-3.648-3.536l-14.646-33.834a16.959,16.959,0,0,1,31.127-13.473L362.532,515.7a6.645,6.645,0,0,1-3.454,8.726l-18.947,8.2a6.59,6.59,0,0,1-5.079.081Z" transform="translate(-245.992 -70.359)" fill="#ccc"/>
    <circle id="Ellipse_102" data-name="Ellipse 102" cx="36.221" cy="36.221" r="36.221" transform="translate(11.911 305.789)" fill="#a0616a"/>
    <path id="Path_322" data-name="Path 322" d="M296.058,480.033a5.861,5.861,0,0,1-8.391.482,65.516,65.516,0,0,1-18.688-24.4c-4.709-11.224-5.4-24.921-.04-35.442,4.53-8.894,12.663-14.555,20.782-19.182a33.909,33.909,0,0,1,10.1-4.268,13.264,13.264,0,0,1,10.55,2.075,11.126,11.126,0,0,1,4.244,10.658A32.966,32.966,0,0,1,329.069,399.1a16.761,16.761,0,0,1,11.14-.746c5.214,1.74,9.073,7.005,11.221,12.662a28.226,28.226,0,0,1,1.851,13.661,16.411,16.411,0,0,1-6.3,11.313c-4.253,2.935-9.732,2.636-14.678,1.338s-9.746-3.5-14.779-4.115-10.61.717-13.608,5.206c-2.112,3.161-2.609,7.325-3.04,11.294l-2.241,20.644a27.355,27.355,0,0,1-1.884,8.612,4.79,4.79,0,0,1-.7,1.062Z" transform="translate(-269.814 -105.843)" fill="#2f2e41"/>
    <path id="Path_323" data-name="Path 323" d="M395.918,632.161h-58.8a6.263,6.263,0,0,1-4.948-2.4,6.368,6.368,0,0,1-1.19-5.463,150.905,150.905,0,0,0,0-70.087,6.369,6.369,0,0,1,1.191-5.463,6.262,6.262,0,0,1,4.948-2.4h58.8a6.345,6.345,0,0,1,6.249,5.317,247.026,247.026,0,0,1,0,75.175A6.345,6.345,0,0,1,395.918,632.161Z" transform="translate(-238.663 -34.888)" fill="#ccc"/>
    <path id="Path_324" data-name="Path 324" d="M344.352,570.009v-1.728a4.429,4.429,0,0,1,4.424-4.424h30.857a4.429,4.429,0,0,1,4.424,4.424v1.728a4.429,4.429,0,0,1-4.424,4.424H348.776a4.429,4.429,0,0,1-4.424-4.424Z" transform="translate(-232.228 -26.578)" fill="#fff"/>
    <path id="Path_325" data-name="Path 325" d="M344.352,582.354v-1.729a4.429,4.429,0,0,1,4.424-4.424h30.857a4.429,4.429,0,0,1,4.424,4.424v1.729a4.429,4.429,0,0,1-4.424,4.424H348.776a4.429,4.429,0,0,1-4.424-4.424Z" transform="translate(-232.228 -20.718)" fill="#fff"/>
    <path id="Path_326" data-name="Path 326" d="M357.664,559.578a6.476,6.476,0,0,1-1.21-5.554,153.374,153.374,0,0,0,0-71.238,6.477,6.477,0,0,1,1.211-5.554,6.368,6.368,0,0,1,5.029-2.437H422.46a6.448,6.448,0,0,1,6.351,5.4,251.06,251.06,0,0,1,0,76.41,6.448,6.448,0,0,1-6.351,5.4H362.693A6.368,6.368,0,0,1,357.664,559.578Z" transform="translate(-226.571 -68.858)" fill="#f9a826"/>
    <path id="Path_327" data-name="Path 327" d="M404.891,500.07H373.406a4.429,4.429,0,0,1-4.424-4.424v-1.879a4.429,4.429,0,0,1,4.424-4.424h31.485a4.429,4.429,0,0,1,4.424,4.424v1.879A4.429,4.429,0,0,1,404.891,500.07Z" transform="translate(-220.535 -61.952)" fill="#fff"/>
    <path id="Path_328" data-name="Path 328" d="M404.891,512.617H373.406a4.429,4.429,0,0,1-4.424-4.424v-1.879a4.429,4.429,0,0,1,4.424-4.424h31.485a4.429,4.429,0,0,1,4.424,4.424v1.879A4.429,4.429,0,0,1,404.891,512.617Z" transform="translate(-220.535 -55.995)" fill="#fff"/>
    <path id="Path_329" data-name="Path 329" d="M370.523,579.261a16.25,16.25,0,0,1-9.636-9.081,15.11,15.11,0,0,1-.53-1.5L283.2,546.714A16.045,16.045,0,0,1,271.6,531.461l-.188-29.792,28.442.761,1.853,17.895,65.981,29.623a15.574,15.574,0,0,1,1.934-.98h0a16.237,16.237,0,1,1,.9,30.293Z" transform="translate(-266.853 -56.1)" fill="#a0616a"/>
    <path id="Path_330" data-name="Path 330" d="M272.252,529.054a6.593,6.593,0,0,1-1.651-4.8l2.262-36.8a16.959,16.959,0,1,1,33.854,2.083l-2.262,36.8a6.645,6.645,0,0,1-7.031,6.216l-20.607-1.267a6.59,6.59,0,0,1-4.565-2.228Z" transform="translate(-267.247 -70.407)" fill="#ccc"/>
  </g>
</svg>
