<svg xmlns="http://www.w3.org/2000/svg" width="203.035" height="227.397" viewBox="0 0 203.035 227.397">
  <path id="icons8-html-5" d="M206.2,3.6a4.925,4.925,0,0,0-3.65-1.6H9.411a4.925,4.925,0,0,0-3.65,1.6A4.87,4.87,0,0,0,4.487,7.388l17.4,194.9a4.958,4.958,0,0,0,3.572,4.325L104.611,229.2a4.488,4.488,0,0,0,1.352.193,4.577,4.577,0,0,0,1.352-.193l79.211-22.593a4.985,4.985,0,0,0,3.572-4.325l17.379-194.9A4.87,4.87,0,0,0,206.2,3.6ZM164.55,70.8h-93l2.221,25.161H162.31l-6.643,74.364-49.724,15.023-.483-.154L56.316,170.308l-2.684-30.3h24.08l1.043,11.76,27.478,5.754,26.976-5.754,2.877-31.823H51.836L45.29,46.761h121.4Z" transform="translate(-4.464 -2)" opacity="0.144"/>
</svg>
