<svg xmlns="http://www.w3.org/2000/svg" width="208.898" height="208.898" viewBox="0 0 208.898 208.898">
  <path id="icons8-javascript" d="M199.648,4H17.27A13.275,13.275,0,0,0,4,17.27V199.629A13.275,13.275,0,0,0,17.27,212.9H199.629a13.271,13.271,0,0,0,13.27-13.25V17.27A13.271,13.271,0,0,0,199.648,4ZM118.4,164.074C118.4,183.95,106.739,193,89.72,193c-15.388,0-26.481-10.317-31.008-19.9l15.64-9.462c3.011,5.343,7.6,9.462,14.2,9.462,6.314,0,9.948-2.467,9.948-12.065V98.5h19.9ZM161.548,193c-17.622,0-27.628-8.879-33.2-19.9l14.921-9.948c4.061,6.645,8.49,13,17.855,13,7.869,0,11.988-3.925,11.988-9.365,0-6.489-4.274-8.8-12.92-12.59l-4.741-2.04c-13.7-5.829-22.809-13.134-22.809-28.6,0-14.222,10.861-25.063,27.8-25.063,12.065,0,20.731,4.2,26.987,15.193l-14.766,9.5c-3.264-5.848-6.761-8.141-12.221-8.141-5.557,0-9.073,3.536-9.073,8.141,0,5.693,3.517,7.985,11.657,11.521l4.741,2.04c16.145,6.9,25.238,13.95,25.238,29.8C193,183.639,179.578,193,161.548,193Z" transform="translate(-4 -4)" opacity="0.144"/>
</svg>
